<svg xmlns="http://www.w3.org/2000/svg" viewBox="0 0 32 32" width="32" height="32">
  <defs>
    <linearGradient id="coinBg" x1="0%" y1="0%" x2="100%" y2="100%">
      <stop offset="0%" stop-color="#0f172a" />
      <stop offset="50%" stop-color="#1e1b4b" />
      <stop offset="100%" stop-color="#311042" />
    </linearGradient>

    <linearGradient id="goldMain" x1="0%" y1="0%" x2="0%" y2="100%">
      <stop offset="0%" stop-color="#ffe4e6" /> <stop offset="15%" stop-color="#fbbf24" />
      <stop offset="85%" stop-color="#d97706" />
      <stop offset="100%" stop-color="#7c2d12" /> </linearGradient>

    <linearGradient id="goldShadow" x1="0%" y1="0%" x2="0%" y2="100%">
      <stop offset="0%" stop-color="#b45309" />
      <stop offset="100%" stop-color="#451a03" />
    </linearGradient>

    <linearGradient id="eyeGlow" x1="0%" y1="0%" x2="100%" y2="100%">
      <stop offset="0%" stop-color="#22d3ee" />
      <stop offset="100%" stop-color="#0891b2" />
    </linearGradient>
  </defs>

  <circle cx="16" cy="16.8" r="14.5" fill="#7c2d12" />
  <circle cx="16" cy="16.4" r="14.5" fill="#b45309" />

  <circle cx="16" cy="16" r="14.5" fill="url(#coinBg)" />
  
  <circle cx="16" cy="16" r="13.2" fill="none" stroke="url(#goldMain)" stroke-width="0.8" opacity="0.9" />
  <circle cx="16" cy="16" r="12.2" fill="none" stroke="#1e1b4b" stroke-width="0.4" />

  <g id="sinu-face">
    <path d="M9 7.5 L12.5 12 L19.5 12 L23 7.5 L24 13 L21 19 L16 23.5 L11 19 L8 13 Z" fill="url(#goldShadow)" />

    <path d="M9.5 8 L12.5 12.5 L8.5 13.5 Z" fill="url(#goldMain)" />
    <path d="M10.2 9.2 L12 12.2 L9.2 12.8 Z" fill="#4c0519" opacity="0.6" /> <path d="M22.5 8 L23.5 13.5 L19.5 12.5 Z" fill="url(#goldMain)" />
    <path d="M21.8 9.2 L22.8 12.8 L20 12.2 Z" fill="#4c0519" opacity="0.6" />

    <path d="M12.5 12 L19.5 12 L22.5 14 L20.5 19 L16 22.5 L11.5 19 L9.5 14 Z" fill="url(#goldMain)" />

    <path d="M9.5 14 L12 15.5 L11.5 19 L10.5 16 Z" fill="#ffffff" opacity="0.85" />
    <path d="M22.5 14 L21.5 16 L20.5 19 L20 15.5 Z" fill="#ffffff" opacity="0.85" />

    <path d="M13.5 16.5 L16 15 L18.5 16.5 L16 20 Z" fill="#ffffff" />
    <polygon points="15,16.2 17,16.2 16,17.2" fill="#0f172a" /> <path d="M15.5 18 Q16 18.5 16.5 18" stroke="#0f172a" stroke-width="0.4" fill="none" />

    <path d="M11.5 14 L13.5 14.5 L12.5 15.5 Z" fill="url(#eyeGlow)" />
    <circle cx="12.5" cy="14.6" r="0.3" fill="#ffffff" /> <path d="M20.5 14 L19.5 15.5 L18.5 14.5 Z" fill="url(#eyeGlow)" />
    <circle cx="19.5" cy="14.6" r="0.3" fill="#ffffff" />
  </g>

  <path d="M4 10 C 7 4, 25 4, 28 10 C 24 6, 8 6, 4 10" fill="#ffffff" opacity="0.15" />
</svg>
